HIERARCHY
ROOT Hips
{
	OFFSET 0.000000 0.000000 0.000000
	CHANNELS 6 Xposition Yposition Zposition Xrotation Yrotation Zrotation
	JOINT LeftUpLeg_virtual
	{
		OFFSET 0.000000 0.000000 0.000000
		CHANNELS 3 Xrotation Yrotation Zrotation
		JOINT LeftUpLeg
		{
			OFFSET 15.427100 -6.655098 0.678600
			CHANNELS 3 Xrotation Yrotation Zrotation
			JOINT LeftLeg
			{
				OFFSET 4.081073 -39.591068 13.024000
				CHANNELS 3 Xrotation Yrotation Zrotation
				JOINT LeftFoot
				{
					OFFSET -4.081074 -37.707932 -15.979700
					CHANNELS 3 Xrotation Yrotation Zrotation
					JOINT LeftToeBase
					{
						OFFSET 5.346399 -15.068900 20.645000
						CHANNELS 3 Xrotation Yrotation Zrotation
						JOINT LeftToe_End
						{
							OFFSET 2.754700 0.931300 11.300900
							CHANNELS 3 Xrotation Yrotation Zrotation
							End Site
							{
								OFFSET 0 0 0
							}
						}
					}
				}
			}
		}
	}
	JOINT RightUpLeg_virtual
	{
		OFFSET 0.000000 0.000000 0.000000
		CHANNELS 3 Xrotation Yrotation Zrotation
		JOINT RightUpLeg
		{
			OFFSET -15.569500 -6.655098 0.678600
			CHANNELS 3 Xrotation Yrotation Zrotation
			JOINT RightLeg
			{
				OFFSET -4.081825 -39.591045 13.023800
				CHANNELS 3 Xrotation Yrotation Zrotation
				JOINT RightFoot
				{
					OFFSET 4.081824 -37.707954 -15.979600
					CHANNELS 3 Xrotation Yrotation Zrotation
					JOINT RightToeBase
					{
						OFFSET -5.346400 -15.068900 20.645000
						CHANNELS 3 Xrotation Yrotation Zrotation
						JOINT RightToe_End
						{
							OFFSET -2.754700 0.931300 11.300900
							CHANNELS 3 Xrotation Yrotation Zrotation
							End Site
							{
								OFFSET 0 0 0
							}
						}
					}
				}
			}
		}
	}
	JOINT Spine_virtual
	{
		OFFSET 0.000000 0.000000 0.000000
		CHANNELS 3 Xrotation Yrotation Zrotation
		JOINT Spine
		{
			OFFSET -0.279200 12.230698 -2.892100
			CHANNELS 3 Xrotation Yrotation Zrotation
			JOINT Spine1
			{
				OFFSET -0.232667 10.192268 -1.242267
				CHANNELS 3 Xrotation Yrotation Zrotation
				JOINT Spine1_split
				{
					OFFSET -0.232667 10.192268 -1.242267
					CHANNELS 3 Xrotation Yrotation Zrotation
					JOINT Spine2
					{
						OFFSET -0.232667 10.192268 -1.242267
						CHANNELS 3 Xrotation Yrotation Zrotation
						JOINT Neck_virtual
						{
							OFFSET 0.000000 0.000000 0.000000
							CHANNELS 3 Xrotation Yrotation Zrotation
							JOINT Neck
							{
								OFFSET -0.418800 17.814194 8.416900
								CHANNELS 3 Xrotation Yrotation Zrotation
								JOINT Head
								{
									OFFSET 0.000000 7.031097 3.806800
									CHANNELS 3 Xrotation Yrotation Zrotation
									JOINT HeadTop_End
									{
										OFFSET 0.000000 24.646606 12.978600
										CHANNELS 3 Xrotation Yrotation Zrotation
										End Site
										{
											OFFSET 0 0 0
										}
									}
								}
							}
						}
						JOINT LeftShoulder_virtual
						{
							OFFSET 0.000000 0.000000 0.000000
							CHANNELS 3 Xrotation Yrotation Zrotation
							JOINT LeftShoulder
							{
								OFFSET 8.476499 7.247704 -3.868750
								CHANNELS 3 Xrotation Yrotation Zrotation
								JOINT LeftShoulder_split
								{
									OFFSET 8.476499 7.247704 -3.868750
									CHANNELS 3 Xrotation Yrotation Zrotation
									JOINT LeftArm
									{
										OFFSET 9.308998 -2.777710 0.208600
										CHANNELS 3 Xrotation Yrotation Zrotation
										JOINT LeftForeArm
										{
											OFFSET 29.972298 0.000000 0.000000
											CHANNELS 3 Xrotation Yrotation Zrotation
											JOINT LeftHand
											{
												OFFSET 26.026505 0.000000 0.000000
												CHANNELS 3 Xrotation Yrotation Zrotation
												End Site
												{
													OFFSET 0 0 0
												}
											}
										}
									}
								}
							}
						}
						JOINT RightShoulder_virtual
						{
							OFFSET 0.000000 0.000000 0.000000
							CHANNELS 3 Xrotation Yrotation Zrotation
							JOINT RightShoulder
							{
								OFFSET -7.570500 7.247704 -3.868750
								CHANNELS 3 Xrotation Yrotation Zrotation
								JOINT RightShoulder_split
								{
									OFFSET -7.570500 7.247704 -3.868750
									CHANNELS 3 Xrotation Yrotation Zrotation
									JOINT RightArm
									{
										OFFSET -9.308998 -2.777710 0.208500
										CHANNELS 3 Xrotation Yrotation Zrotation
										JOINT RightForeArm
										{
											OFFSET -29.972300 0.000000 0.000000
											CHANNELS 3 Xrotation Yrotation Zrotation
											JOINT RightHand
											{
												OFFSET -26.026505 0.000000 0.000000
												CHANNELS 3 Xrotation Yrotation Zrotation
												End Site
												{
													OFFSET 0 0 0
												}
											}
										}
									}
								}
							}
						}
					}
				}
			}
		}
	}
}
MOTION
Frames: 7
Frame Time: 0.03333333
1.592746 138.710571 18.699514 0.000000 0.000000 0.000000 6.039992 -39.018238 2.851856 -78.900501 -18.432994 23.598292 76.905717 0.049585 4.288213 4.618157 2.255485 -4.398549 -7.766741 2.141172 -1.925834 0.000000 0.000000 0.000000 6.415082 -40.985848 2.508836 -113.385020 -39.380289 -2.113759 96.750354 15.273754 -7.457390 38.993133 4.870380 24.852480 8.084312 3.242238 -1.050519 0.000000 0.000000 0.000000 6.764482 -40.391198 1.961777 32.092026 -5.653065 -8.171162 13.398391 1.024068 -3.695166 0.436455 1.182858 1.072151 0.000000 0.000000 0.000000 13.109866 1.102811 -2.537588 -7.611469 18.361227 -13.719819 -25.917860 11.609685 4.656142 0.000000 0.000000 0.000000 14.318725 1.241054 -3.142035 13.222845 -18.407392 5.412673 1.076330 -3.969557 -3.067812 -59.237397 -9.609701 -5.874310 47.202389 -15.535293 28.808942 0.000000 0.000000 0.000000 15.062223 1.309737 -3.019516 18.909213 26.734346 -7.408764 0.754969 3.594093 1.925068 -35.482754 1.217461 8.118876 -43.239199 48.656376 33.260989 0.000000 0.000000 0.000000 
1.591702 138.676071 18.648233 0.000000 0.000000 0.000000 6.055539 -39.229236 2.963258 -78.858625 -18.290743 23.705104 76.867386 -0.041177 4.115249 4.547460 2.547427 -4.508292 -7.758058 2.136815 -1.934501 0.000000 0.000000 0.000000 6.464777 -41.196300 2.632106 -112.954971 -39.444691 -1.980293 96.505928 15.325409 -7.534284 38.775629 4.767323 24.576556 8.044437 3.251742 -1.136585 0.000000 0.000000 0.000000 6.719512 -40.465220 2.034792 32.052025 -5.676967 -8.213553 13.355546 1.043196 -3.685389 0.371874 1.193972 1.093707 0.000000 0.000000 0.000000 13.141436 1.104818 -2.549871 -7.610725 18.358536 -13.721456 -25.792386 11.736901 4.503259 0.000000 0.000000 0.000000 14.285793 1.257395 -3.124753 12.948424 -18.455255 4.701421 1.239531 -4.076334 -3.333919 -58.425097 -9.021690 -5.760534 47.066396 -15.441664 28.564363 0.000000 0.000000 0.000000 15.034657 1.292190 -3.032015 18.414713 27.110066 -6.377492 0.750293 3.694626 1.898854 -34.390494 1.073855 8.061299 -43.363799 48.410031 33.192452 0.000000 0.000000 0.000000 
1.578380 138.629242 18.602077 0.000000 0.000000 0.000000 6.134213 -39.374627 3.117421 -78.769293 -18.180908 23.718397 76.742093 -0.158722 3.947528 4.385279 2.893911 -4.611621 -7.781220 2.115941 -1.905792 0.000000 0.000000 0.000000 6.552083 -41.326080 2.782525 -112.547126 -39.454653 -1.870910 96.295306 15.339913 -7.599737 38.517810 4.688206 24.327512 8.009778 3.252593 -1.201817 0.000000 0.000000 0.000000 6.717536 -40.551352 2.155333 31.954190 -5.686432 -8.244725 13.295691 1.054399 -3.673967 0.337664 1.197676 1.119901 0.000000 0.000000 0.000000 13.141435 1.106617 -2.566890 -7.535217 18.349010 -13.741987 -25.622352 11.884630 4.379799 0.000000 0.000000 0.000000 14.241091 1.270957 -3.109151 12.719839 -18.436182 4.090112 1.306965 -4.187231 -3.628668 -57.514516 -8.192791 -5.491007 46.922112 -15.483562 28.387251 0.000000 0.000000 0.000000 14.989369 1.280801 -3.043615 17.957493 27.419195 -5.478848 0.752113 3.763351 1.948125 -33.462562 0.715490 7.883536 -43.454907 48.060776 33.065362 0.000000 0.000000 0.000000 
1.560066 138.578339 18.540327 0.000000 0.000000 0.000000 6.256205 -39.435286 3.306953 -78.637436 -18.122073 23.624753 76.551244 -0.289215 3.794856 4.174261 3.281652 -4.697746 -7.848663 2.081253 -1.841370 0.000000 0.000000 0.000000 6.661360 -41.378959 2.962268 -112.180584 -39.423538 -1.830201 96.117236 15.324895 -7.641746 38.225420 4.656078 24.116983 7.970647 3.248555 -1.253660 0.000000 0.000000 0.000000 6.736613 -40.640824 2.321638 31.816227 -5.692428 -8.267776 13.234502 1.055951 -3.663087 0.357267 1.223303 1.178984 0.000000 0.000000 0.000000 13.119076 1.108603 -2.587501 -7.423634 18.330131 -13.764837 -25.416445 12.025360 4.302515 0.000000 0.000000 0.000000 14.187987 1.280318 -3.097822 12.523635 -18.362895 3.528674 1.256912 -4.246684 -3.940083 -56.513132 -7.097778 -5.131819 46.842175 -15.705887 28.331208 0.000000 0.000000 0.000000 14.931067 1.275235 -3.050351 17.542970 27.662136 -4.686505 0.783251 3.793890 2.064670 -32.755357 0.337885 7.656929 -43.422631 47.576598 32.797578 0.000000 0.000000 0.000000 
1.530137 138.532684 18.486208 0.000000 0.000000 0.000000 6.380317 -39.434951 3.521980 -78.455938 -18.101775 23.457255 76.317460 -0.415202 3.652922 3.936782 3.704946 -4.745670 -7.946847 2.039364 -1.762151 0.000000 0.000000 0.000000 6.794643 -41.375234 3.176866 -111.870398 -39.365768 -1.895520 95.976541 15.290152 -7.646509 37.918523 4.681708 23.947026 7.897254 3.242904 -1.300611 0.000000 0.000000 0.000000 6.756792 -40.720338 2.512735 31.657223 -5.699778 -8.286374 13.171928 1.053299 -3.658709 0.405239 1.259108 1.201532 0.000000 0.000000 0.000000 13.073056 1.112739 -2.612029 -7.306550 18.311461 -13.789769 -25.193318 12.152616 4.284796 0.000000 0.000000 0.000000 14.122875 1.284043 -3.091820 12.332763 -18.247701 2.942834 1.097301 -4.213271 -4.169524 -55.481558 -5.704345 -4.701131 46.916593 -16.158385 28.446831 0.000000 0.000000 0.000000 14.857492 1.273509 -3.051841 17.168734 27.835017 -3.961970 0.811355 3.774575 2.232566 -32.224105 0.072031 7.420237 -43.266544 46.992630 32.407878 0.000000 0.000000 0.000000 
1.498667 138.497421 18.442009 0.000000 0.000000 0.000000 6.500099 -39.413535 3.758812 -78.236313 -18.089625 23.244546 76.061048 -0.532522 3.523868 3.696994 4.132726 -4.760817 -8.050187 1.997513 -1.685962 0.000000 0.000000 0.000000 6.922940 -41.369667 3.415959 -111.629695 -39.290083 -2.077230 95.879170 15.256776 -7.620167 37.625545 4.775451 23.818289 7.774153 3.237438 -1.348580 0.000000 0.000000 0.000000 6.747855 -40.782363 2.708021 31.500245 -5.707699 -8.296088 13.108624 1.048819 -3.656215 0.444488 1.273076 1.212305 0.000000 0.000000 0.000000 13.005589 1.118865 -2.632938 -7.216183 18.293291 -13.811755 -24.964847 12.233447 4.318687 0.000000 0.000000 0.000000 14.040522 1.286632 -3.086767 12.126750 -18.069522 2.274321 0.850230 -4.123303 -4.263779 -54.524400 -4.067892 -4.232668 47.159137 -16.777439 28.722574 0.000000 0.000000 0.000000 14.767200 1.273605 -3.044060 16.827194 27.933792 -3.264557 0.819897 3.681860 2.416675 -31.832435 -0.082844 7.212798 -42.994241 46.324119 31.920172 0.000000 0.000000 0.000000 
1.457479 138.473694 18.424217 0.000000 0.000000 0.000000 6.580187 -39.399584 4.001548 -77.983022 -18.042792 23.043615 75.795046 -0.657552 3.408605 3.472993 4.514487 -4.779554 -8.129819 1.956993 -1.621223 0.000000 0.000000 0.000000 7.032426 -41.375507 3.670465 -111.477355 -39.195795 -2.361138 95.814747 15.233946 -7.570825 37.373409 4.927589 23.726810 7.595701 3.233924 -1.394539 0.000000 0.000000 0.000000 6.700276 -40.812214 2.878794 31.355793 -5.713534 -8.295847 13.035654 1.043432 -3.645754 0.474670 1.312399 1.177065 0.000000 0.000000 0.000000 12.916350 1.123972 -2.644602 -7.173334 18.272713 -13.830628 -24.741913 12.264731 4.379913 0.000000 0.000000 0.000000 13.944212 1.287576 -3.076529 11.898259 -17.795826 1.513782 0.521835 -3.994550 -4.277765 -53.701314 -2.216792 -3.745995 47.471597 -17.396984 29.051844 0.000000 0.000000 0.000000 14.656440 1.272424 -3.017170 16.503315 27.922363 -2.572860 0.758866 3.598085 2.542445 -31.467358 -0.236998 7.063926 -42.716522 45.677587 31.472258 0.000000 0.000000 0.000000 
